<?xml version="1.0" encoding="utf-8"?>
<!-- Generator: Adobe Illustrator 22.1.0, SVG Export Plug-In . SVG Version: 6.00 Build 0)  -->
<svg version="1.1" id="Layer_2" xmlns="http://www.w3.org/2000/svg" xmlns:xlink="http://www.w3.org/1999/xlink" x="0px" y="0px"
	 viewBox="0 0 134 85" style="enable-background:new 0 0 134 85;" xml:space="preserve">
<style type="text/css">
	.st0{fill:#F9B2BB;}
</style>
<path class="st0" d="M114.7,1.1h-1.4c0,0,0,0-0.1,0h-13.2c0,0,0,0,0,0h-1.9c0,0,0,0-0.1,0c0,0,0,0-0.1,0H0.9c-0.4,0-0.8,0.1-1.1,0.3
	v3.4c0.3,0.2,0.6,0.3,1.1,0.3h95.2v14.3H-0.1c0,0,0,0,0,0v4c0,0,0,0,0,0h96.2v16.8H-0.2v4h96.2V61H-0.2v4h96.2v15.6H-0.2v4h115.1
	c3.2,0,3.1-2.6,3.1-4V63.3c0-0.2,0-0.4,0-0.7V4.9c0-1.3,0-3.8-2.9-3.8 M102.1,5.1h8v14.3h-8V5.1z M102.1,23.4h8v16.8h-8V23.4z
	 M102.1,44.2h8V61h-8V44.2z M102.1,80.5V65h8v15.5c0,0,0,0,0,0H102.1z"/>
</svg>
